<svg xmlns:xlink="http://www.w3.org/1999/xlink" xmlns="http://www.w3.org/2000/svg" class="StepCard__desktopSVG" width="100"  height="120" ><defs><symbol xmlns="http://www.w3.org/2000/svg" width="93" height="117" viewBox="0 0 93 117" fill="none" id="2_desktop"><path d="M92.2436 90.7045V90.2045H91.7436H56.8289L74.4878 73.8069L74.4888 73.8061C84.5009 64.4614 91.0816 54.7105 91.0816 40.5725C91.0816 26.1275 84.6915 17.5414 80.1451 12.995C75.0824 7.9322 65.331 1.39453 48.5836 1.39453C34.6845 1.39453 24.4276 5.92138 16.856 13.493C10.9672 19.3818 4.59333 29.9602 4.42563 44.5508L4.41981 45.0565H4.92559H34.6396H35.1183L35.1391 44.5783C35.2207 42.7026 35.5478 40.2058 36.182 37.7511C36.8178 35.2899 37.7507 32.9166 39.0191 31.2504C40.7633 29.0322 43.7783 26.9625 48.2516 26.9625C51.7645 26.9625 54.4516 28.3984 56.0156 30.1189C57.5903 31.851 58.3944 34.117 58.8005 36.1273C59.2054 38.1313 59.2056 39.8339 59.2056 40.4065C59.2056 47.3959 56.284 52.7724 53.309 57.4002L53.309 57.4001L53.3061 57.4048C48.0187 65.8315 40.5735 74.9343 30.6255 85.3797L2.57196 114.761L1.76488 115.607H2.93359H91.7436H92.2436V115.107V90.7045Z" fill="none" stroke="#ADADAD"></path></symbol></defs><use href="#2_desktop"></use></svg>